<svg xmlns="http://www.w3.org/2000/svg" viewBox="0 0 128 80" role="img" aria-label="Ferry icon">
  <defs>
    <linearGradient id="hull" x1="0" y1="0" x2="1" y2="1">
      <stop offset="0%" stop-color="#1f5f8b"/>
      <stop offset="100%" stop-color="#143f5c"/>
    </linearGradient>
    <linearGradient id="deck" x1="0" y1="0" x2="0" y2="1">
      <stop offset="0%" stop-color="#f7f9fb"/>
      <stop offset="100%" stop-color="#dce6ef"/>
    </linearGradient>
  </defs>
  <path d="M14 52h100l-11 18H28z" fill="url(#hull)"/>
  <rect x="26" y="26" width="76" height="26" rx="6" fill="url(#deck)"/>
  <rect x="35" y="18" width="18" height="8" rx="2" fill="#d64141"/>
  <rect x="42" y="33" width="10" height="8" rx="1.5" fill="#7fb7dd"/>
  <rect x="57" y="33" width="10" height="8" rx="1.5" fill="#7fb7dd"/>
  <rect x="72" y="33" width="10" height="8" rx="1.5" fill="#7fb7dd"/>
  <rect x="87" y="33" width="10" height="8" rx="1.5" fill="#7fb7dd"/>
  <path d="M10 62c8 6 16 6 24 0 8 6 16 6 24 0 8 6 16 6 24 0 8 6 16 6 24 0 8 6 16 6 24 0" fill="none" stroke="#57a6d8" stroke-width="4" stroke-linecap="round"/>
</svg>
